<svg width="869.143" height="87.605" viewBox="0 0 869.143 87.605" xmlns="http://www.w3.org/2000/svg"><g id="svgGroup" stroke-linecap="round" fill-rule="nonzero" font-size="9pt" stroke="#ffffff" stroke-width="0.25mm" fill="#ffffff" style="stroke:#ffffff;stroke-width:0.25mm;fill:#ffffff"><path d="M 350.174 86.152 L 327.789 86.152 L 327.789 1.452 L 352.594 1.452 L 373.043 31.702 L 393.492 1.452 L 418.297 1.452 L 418.297 86.152 L 395.912 86.152 L 395.912 36.058 L 373.164 69.212 L 350.174 36.058 L 350.174 86.152 Z M 492.107 86.152 L 469.722 86.152 L 469.722 1.452 L 493.317 1.452 L 526.35 48.037 L 526.35 1.452 L 548.735 1.452 L 548.735 86.152 L 526.35 86.152 L 492.107 37.873 L 492.107 86.152 Z M 638.396 18.634 L 619.762 29.645 Q 618.068 26.983 615.467 24.926 Q 612.865 22.869 609.78 21.72 Q 606.694 20.57 603.548 20.57 Q 597.256 20.57 592.416 23.535 Q 587.576 26.499 584.793 31.702 Q 582.01 36.905 582.01 43.802 Q 582.01 50.578 584.672 55.902 Q 587.334 61.226 592.356 64.251 Q 597.377 67.276 604.153 67.276 Q 608.509 67.276 612.018 65.824 Q 615.527 64.372 617.766 61.771 Q 620.004 59.169 620.609 55.66 L 601.975 55.66 L 601.975 38.72 L 642.147 38.72 L 642.147 51.183 Q 641.784 63.404 636.702 71.511 Q 631.62 79.618 623.09 83.611 Q 614.559 87.604 603.548 87.604 Q 590.48 87.604 580.437 81.978 Q 570.394 76.351 564.707 66.49 Q 559.02 56.628 559.02 43.802 Q 559.02 30.976 564.707 21.115 Q 570.394 11.253 580.437 5.627 Q 590.48 0 603.548 0 Q 612.139 0 618.734 2.42 Q 625.328 4.84 630.168 9.015 Q 635.008 13.189 638.396 18.634 Z M 865.392 18.634 L 846.758 29.645 Q 845.064 26.983 842.463 24.926 Q 839.861 22.869 836.776 21.72 Q 833.69 20.57 830.544 20.57 Q 824.252 20.57 819.412 23.535 Q 814.572 26.499 811.789 31.702 Q 809.006 36.905 809.006 43.802 Q 809.006 50.578 811.668 55.902 Q 814.33 61.226 819.352 64.251 Q 824.373 67.276 831.149 67.276 Q 835.505 67.276 839.014 65.824 Q 842.523 64.372 844.762 61.771 Q 847 59.169 847.605 55.66 L 828.971 55.66 L 828.971 38.72 L 869.143 38.72 L 869.143 51.183 Q 868.78 63.404 863.698 71.511 Q 858.616 79.618 850.086 83.611 Q 841.555 87.604 830.544 87.604 Q 817.476 87.604 807.433 81.978 Q 797.39 76.351 791.703 66.49 Q 786.016 56.628 786.016 43.802 Q 786.016 30.976 791.703 21.115 Q 797.39 11.253 807.433 5.627 Q 817.476 0 830.544 0 Q 839.135 0 845.73 2.42 Q 852.324 4.84 857.164 9.015 Q 862.004 13.189 865.392 18.634 Z M 223.85 86.152 L 166.254 86.152 L 166.254 1.452 L 223.003 1.452 L 223.003 22.022 L 188.639 22.022 L 188.639 33.759 L 216.469 33.759 L 216.469 53.724 L 188.639 53.724 L 188.639 65.582 L 223.85 65.582 L 223.85 86.152 Z M 108.416 86.152 L 86.031 86.152 L 86.031 1.452 L 121.121 1.452 Q 130.68 1.452 138.061 5.143 Q 145.442 8.833 149.617 15.307 Q 153.791 21.78 153.791 30.25 Q 153.791 38.599 149.677 45.133 Q 145.563 51.667 138.545 55.297 L 157.179 86.152 L 131.527 86.152 L 116.281 59.29 L 114.829 59.29 L 113.377 59.29 L 108.416 59.29 L 108.416 86.152 Z M 108.416 21.901 L 108.416 38.72 L 119.911 38.72 Q 122.936 38.72 125.235 37.631 Q 127.534 36.542 128.865 34.606 Q 130.196 32.67 130.196 30.25 Q 130.196 26.62 127.352 24.261 Q 124.509 21.901 119.911 21.901 L 108.416 21.901 Z M 254.463 86.152 L 230.747 86.152 L 263.175 1.452 L 287.254 1.452 L 319.682 86.152 L 295.966 86.152 L 291.005 72.6 L 259.424 72.6 L 254.463 86.152 Z M 275.275 29.403 L 266.684 52.877 L 283.745 52.877 L 275.275 29.403 Z M 28.314 86.152 L 0 86.152 L 0 1.452 L 28.314 1.452 Q 42.229 1.452 52.938 6.897 Q 63.646 12.342 69.696 21.841 Q 75.746 31.339 75.746 43.802 Q 75.746 56.144 69.696 65.703 Q 63.646 75.262 52.938 80.707 Q 42.229 86.152 28.314 86.152 Z M 22.385 22.627 L 22.385 64.977 L 28.314 64.977 Q 33.638 64.977 38.115 63.404 Q 42.592 61.831 45.859 59.048 Q 49.126 56.265 50.941 52.393 Q 52.756 48.521 52.756 43.802 Q 52.756 39.083 50.941 35.211 Q 49.126 31.339 45.859 28.556 Q 42.592 25.773 38.115 24.2 Q 33.638 22.627 28.314 22.627 L 22.385 22.627 Z M 713.779 86.152 L 679.052 86.152 L 679.052 1.452 L 709.544 1.452 Q 718.377 1.452 725.153 4.114 Q 731.929 6.776 735.801 12.342 Q 739.673 17.908 739.673 26.499 Q 739.673 30.371 737.495 34.122 Q 735.317 37.873 731.445 41.019 Q 737.011 44.044 740.036 48.945 Q 743.061 53.845 743.061 60.984 Q 743.061 69.091 739.31 74.718 Q 735.559 80.344 728.965 83.248 Q 722.37 86.152 713.779 86.152 Z M 700.832 51.304 L 700.832 66.429 L 711.117 66.429 Q 715.11 66.429 717.47 64.251 Q 719.829 62.073 719.829 58.685 Q 719.829 55.297 717.47 53.301 Q 715.11 51.304 711.117 51.304 L 700.832 51.304 Z M 700.832 18.755 L 700.832 33.517 L 707.971 33.517 Q 711.843 33.517 714.263 31.581 Q 716.683 29.645 716.683 26.136 Q 716.683 22.627 714.263 20.691 Q 711.843 18.755 707.971 18.755 L 700.832 18.755 Z M 455.202 86.152 L 432.817 86.152 L 432.817 1.452 L 455.202 1.452 L 455.202 86.152 Z M 775.731 86.152 L 753.346 86.152 L 753.346 1.452 L 775.731 1.452 L 775.731 86.152 Z" vector-effect="non-scaling-stroke"/></g></svg>